<?xml version="1.0" encoding="UTF-8"?>
<svg version="1.1" xmlns="http://www.w3.org/2000/svg" width="256" height="256">
<path d="M0 0 C1.03133057 0.32145996 1.03133057 0.32145996 2.08349609 0.64941406 C35.21964837 11.31445815 59.66665667 34.23651032 75.42578125 64.76171875 C83.15723248 80.77515798 86.37065521 97.42962866 86.31567383 115.12548828 C86.31252401 117.23393064 86.33603675 119.34094939 86.36132812 121.44921875 C86.48858789 148.82799216 76.66437062 175.07542675 59 196 C58.16984375 196.99257812 57.3396875 197.98515625 56.484375 199.0078125 C37.44121381 221.09548056 9.8589637 235.38696648 -19 239 C-23.5819792 239.20680478 -28.16235246 239.22793001 -32.74829102 239.24023438 C-34.90096246 239.24983701 -37.05263408 239.28087185 -39.20507812 239.3125 C-66.6911665 239.5221822 -92.98488472 229.74080554 -114 212 C-114.99257812 211.16984375 -115.98515625 210.3396875 -117.0078125 209.484375 C-128.93134971 199.20434723 -137.77670223 186.9176584 -145 173 C-145.47050781 172.10023438 -145.94101563 171.20046875 -146.42578125 170.2734375 C-149.073556 164.84672888 -150.95978721 159.27113345 -152.6875 153.5 C-152.89012451 152.82412842 -153.09274902 152.14825684 -153.30151367 151.4519043 C-156.48353967 140.32875208 -157.40739304 129.53568455 -157.375 118 C-157.37445618 117.27144806 -157.37391235 116.54289612 -157.37335205 115.79226685 C-157.33343017 104.1464158 -156.53509589 93.15680567 -153 82 C-152.78569336 81.31244629 -152.57138672 80.62489258 -152.35058594 79.91650391 C-142.48797551 49.27350252 -121.42617064 24.03038028 -93.00390625 9 C-65.28953142 -5.10182458 -29.95307476 -9.49079822 0 0 Z " fill="#015C0D" transform="translate(163,10)"/>
<path d="M0 0 C1.03133057 0.32145996 1.03133057 0.32145996 2.08349609 0.64941406 C35.21964837 11.31445815 59.66665667 34.23651032 75.42578125 64.76171875 C83.15723248 80.77515798 86.37065521 97.42962866 86.31567383 115.12548828 C86.31252401 117.23393064 86.33603675 119.34094939 86.36132812 121.44921875 C86.48858789 148.82799216 76.66437062 175.07542675 59 196 C58.16984375 196.99257812 57.3396875 197.98515625 56.484375 199.0078125 C37.44121381 221.09548056 9.8589637 235.38696648 -19 239 C-23.5819792 239.20680478 -28.16235246 239.22793001 -32.74829102 239.24023438 C-34.90096246 239.24983701 -37.05263408 239.28087185 -39.20507812 239.3125 C-66.6911665 239.5221822 -92.98488472 229.74080554 -114 212 C-114.99257812 211.16984375 -115.98515625 210.3396875 -117.0078125 209.484375 C-128.93134971 199.20434723 -137.77670223 186.9176584 -145 173 C-145.47050781 172.10023438 -145.94101563 171.20046875 -146.42578125 170.2734375 C-149.073556 164.84672888 -150.95978721 159.27113345 -152.6875 153.5 C-152.89012451 152.82412842 -153.09274902 152.14825684 -153.30151367 151.4519043 C-156.48353967 140.32875208 -157.40739304 129.53568455 -157.375 118 C-157.37445618 117.27144806 -157.37391235 116.54289612 -157.37335205 115.79226685 C-157.33343017 104.1464158 -156.53509589 93.15680567 -153 82 C-152.78569336 81.31244629 -152.57138672 80.62489258 -152.35058594 79.91650391 C-142.48797551 49.27350252 -121.42617064 24.03038028 -93.00390625 9 C-65.28953142 -5.10182458 -29.95307476 -9.49079822 0 0 Z M-50.93359375 10.28125 C-52.26360932 12.08774782 -52.26360932 12.08774782 -52 15 C-53.46953125 14.92265625 -53.46953125 14.92265625 -54.96875 14.84375 C-59.44878219 14.85274605 -63.29297411 16.04996348 -67.5 17.5 C-68.28463623 17.76844727 -69.06927246 18.03689453 -69.87768555 18.31347656 C-96.24148737 27.68324582 -117.5579961 46.69058335 -129.97851562 71.73413086 C-136.84817686 86.22365325 -140.40270022 100.91809163 -140.25 116.9375 C-140.24105713 117.9987207 -140.23211426 119.05994141 -140.22290039 120.15332031 C-139.99187474 135.70026924 -136.09264982 149.71688363 -129.6953125 163.890625 C-128.72157705 166.84465389 -129.9444118 168.42825638 -131.25 171.109375 C-132.99096816 175.49806557 -132.44183077 179.70049773 -130.9375 184.125 C-127.89244466 188.64346921 -124.21921417 192.26026194 -119 194 C-117.12400288 193.86760981 -115.24906591 193.7198828 -113.375 193.5625 C-108.49073839 193.52748737 -106.21418155 194.03845073 -102.6875 197.4375 C-101.97722656 198.16453125 -101.26695313 198.8915625 -100.53515625 199.640625 C-83.84241936 215.17593021 -58.33415046 222.46229785 -36.0625 222.25 C-35.0012793 222.24105713 -33.94005859 222.23211426 -32.84667969 222.22290039 C-9.2247048 221.8718809 14.14558496 213.24934472 31.984375 197.53125 C35.38287563 194.94944332 38.22798355 194.90673598 42.375 195.125 C46.70413648 195.14625599 49.35390981 194.51175102 53 192 C57.29059927 187.73961622 59.86449146 184.61983168 60.1875 178.375 C60.1875 175.21719575 59.64604234 172.7454448 58.6875 169.75 C57.38947155 164.45803785 59.33041357 160.89575257 61.55859375 156.10546875 C70.52512872 136.78732431 72.45622562 112.35793725 66 92 C65.6596875 90.74445313 65.319375 89.48890625 64.96875 88.1953125 C57.61305206 61.71031472 39.76369116 39.64905199 16 26 C5.58696994 20.41940085 -7.01383033 14.47886219 -19 15 C-19.020625 14.29875 -19.04125 13.5975 -19.0625 12.875 C-20.63303662 8.0586877 -24.70474258 5.3321494 -28.9921875 2.84375 C-37.62776456 -0.78520845 -45.43633484 3.73621067 -50.93359375 10.28125 Z " fill="#015B0D" transform="translate(163,10)"/>
<path d="M0 0 C4.08751039 2.40397179 7.29020779 4.98911806 9.85546875 9.05078125 C9.85546875 10.04078125 9.85546875 11.03078125 9.85546875 12.05078125 C10.81582031 11.99019531 11.77617187 11.92960937 12.765625 11.8671875 C17.60014175 11.87810611 21.78150504 13.36731505 26.29296875 14.98828125 C27.16679199 15.29967041 28.04061523 15.61105957 28.94091797 15.93188477 C56.58722794 26.1691167 77.34314413 46.57682819 89.98730469 73.07861328 C95.71443479 86.08866867 98.24040666 99.83227442 98.10546875 113.98828125 C98.09205444 115.5801123 98.09205444 115.5801123 98.07836914 117.20410156 C97.85733345 132.0787728 94.69484419 146.87160156 87.73681641 160.19238281 C86.58138895 162.62870243 86.98596674 163.74557683 87.73046875 166.30078125 C89.13667725 171.89804254 89.69893808 176.56998911 87.79296875 182.17578125 C84.74791341 186.69425046 81.07468292 190.31104319 75.85546875 192.05078125 C73.9585226 191.94399021 72.06270085 191.81649119 70.16796875 191.67578125 C65.67492221 191.6489731 63.31630778 191.85193218 60.04296875 194.98828125 C59.11291016 195.94154297 59.11291016 195.94154297 58.1640625 196.9140625 C50.09660532 204.38089681 39.05763671 209.33339212 28.85546875 213.05078125 C27.86933594 213.41945312 26.88320312 213.788125 25.8671875 214.16796875 C7.78212478 220.59508572 -13.72937777 221.89088108 -32.14453125 216.05078125 C-33.40007812 215.71046875 -34.655625 215.37015625 -35.94921875 215.01953125 C-51.76729371 210.62636564 -66.45853344 202.73677906 -78.14453125 191.05078125 C-80.84300636 190.92182104 -80.84300636 190.92182104 -83.89453125 191.11328125 C-88.83672395 191.1722573 -92.04816731 191.07428797 -96.14453125 188.05078125 C-101.14283772 183.05247478 -103.38517402 179.51911478 -103.3984375 172.2109375 C-103.12216613 169.86050569 -102.41009607 168.39144137 -101.33203125 166.30078125 C-100.14400764 163.45840701 -100.06991834 162.3160716 -100.91796875 159.30078125 C-102.25801753 156.18212226 -103.70039952 153.12242651 -105.14453125 150.05078125 C-112.46338132 131.09053878 -114.34339843 108.59720922 -108.14453125 89.05078125 C-107.80421875 87.79523438 -107.46390625 86.5396875 -107.11328125 85.24609375 C-99.35103681 57.30606891 -80.59526998 36.10455385 -55.70239258 21.83496094 C-49.87918844 18.61513419 -43.98369011 16.07682759 -37.64453125 14.05078125 C-36.99830811 13.84291992 -36.35208496 13.63505859 -35.6862793 13.42089844 C-31.41806594 12.15861703 -27.57887932 11.86792154 -23.14453125 12.05078125 C-23.08265625 11.51453125 -23.02078125 10.97828125 -22.95703125 10.42578125 C-21.25963518 5.46416196 -18.26009297 2.68223128 -13.83203125 0.17578125 C-8.85044062 -1.34402606 -4.81074642 -2.12934678 0 0 Z M-75.08203125 48.55078125 C-86.386409 60.11927997 -94.1264173 74.43234964 -98.14453125 90.05078125 C-98.42425781 91.04078125 -98.70398438 92.03078125 -98.9921875 93.05078125 C-103.89631373 112.39356748 -102.65239363 136.79678607 -92.71484375 154.515625 C-90.07079143 157.10048211 -87.26994326 156.86328125 -83.71484375 156.86328125 C-78.55540796 157.23965347 -74.6518042 160.44626488 -71.20703125 164.11328125 C-68.21349346 169.57208546 -68.47262664 175.69911512 -70.14453125 181.55078125 C-70.47453125 182.37578125 -70.80453125 183.20078125 -71.14453125 184.05078125 C-51.98246111 201.84413209 -27.5051113 210.42166108 -1.4921875 209.5 C20.20505338 208.07794841 40.63040574 199.47305948 56.85546875 185.05078125 C56.52546875 184.22578125 56.19546875 183.40078125 55.85546875 182.55078125 C54.26780346 176.99395273 54.32043329 172.80450858 55.98046875 167.36328125 C58.06975596 163.67220718 60.04276568 160.94524286 63.85546875 159.05078125 C68.5158485 158.0568614 73.106559 158.05078125 77.85546875 158.05078125 C88.95011339 132.97688435 91.81855622 107.09574849 82.41796875 80.87109375 C73.63346327 58.32710092 56.49742888 39.03157539 34.40234375 28.9453125 C22.5362168 23.80498416 22.5362168 23.80498416 9.85546875 22.05078125 C8.47104875 24.01576447 7.14343041 26.0212659 5.85546875 28.05078125 C1.05470305 32.38317956 -2.55989121 33.37645387 -8.87109375 33.25390625 C-12.32637165 32.94518726 -14.31142684 32.06543328 -17.14453125 30.05078125 C-18.76540408 27.99117593 -20.24289256 25.90504529 -21.65234375 23.6953125 C-22.14476563 23.15261719 -22.6371875 22.60992187 -23.14453125 22.05078125 C-42.66384712 22.05078125 -61.4746733 35.72764798 -75.08203125 48.55078125 Z " fill="#F9FBF9" transform="translate(134.14453125,12.94921875)"/>
<path d="M0 0 C6.4519986 4.34043542 11.5802614 10.52019979 13.29899597 18.20451355 C14.70313826 26.11309466 15.05673243 33.77888677 15.05078125 41.80078125 C15.05506638 43.09896286 15.0593515 44.39714447 15.06376648 45.73466492 C15.07115756 48.45832455 15.07098702 51.18185433 15.06567383 53.90551758 C15.05984639 57.37979684 15.07692258 60.85354865 15.1000185 64.32774067 C15.118341 67.67294257 15.11457059 71.01802954 15.11328125 74.36328125 C15.122491 75.60193436 15.13170074 76.84058746 15.14118958 78.11677551 C15.10033842 85.73758075 14.75723944 91.19598976 9.6875 97.1875 C5.36626239 99.48603064 1.53818802 99.6310266 -3.25 98.75 C-6.87585931 97.00751138 -8.86695784 94.69536016 -10.39028931 90.93572998 C-11.24499799 87.76853538 -11.50119915 85.1739255 -11.50537109 81.90332031 C-11.51233002 80.7748468 -11.51928894 79.64637329 -11.52645874 78.48370361 C-11.52546173 77.27736267 -11.52446472 76.07102173 -11.5234375 74.828125 C-11.54373008 72.24999569 -11.56458093 69.67187072 -11.5859375 67.09375 C-11.61061198 63.04752826 -11.6258428 59.00137079 -11.63085938 54.95507812 C-11.6368844 51.03752942 -11.67424357 47.12050756 -11.7109375 43.203125 C-11.70336929 41.40575897 -11.70336929 41.40575897 -11.69564819 39.57208252 C-11.77965284 32.34487653 -12.56574311 26.09564253 -16.25 19.75 C-18.69209319 17.62887015 -18.69209319 17.62887015 -21.25 16.75 C-21.91 16.42 -22.57 16.09 -23.25 15.75 C-29.46404994 15.045433 -34.14115675 15.62188462 -39.55859375 18.77734375 C-41.25 19.75 -41.25 19.75 -44.25 20.75 C-45.33431094 22.49867483 -45.33431094 22.49867483 -46.25 24.75 C-46.765625 25.719375 -47.28125 26.68875 -47.8125 27.6875 C-49.93100539 32.20083756 -50.37332781 36.22937822 -50.3918457 41.17944336 C-50.39888016 42.24082016 -50.40591461 43.30219696 -50.41316223 44.39573669 C-50.41732651 45.53229202 -50.42149078 46.66884735 -50.42578125 47.83984375 C-50.44897218 50.25717024 -50.47308922 52.67448798 -50.49804688 55.09179688 C-50.53319874 58.89483563 -50.56253539 62.69755071 -50.57592773 66.50073242 C-50.59139783 70.17666469 -50.6315928 73.85165921 -50.67578125 77.52734375 C-50.67387283 78.66187485 -50.67196442 79.79640594 -50.66999817 80.96531677 C-50.76651624 87.19578655 -51.05445561 91.0190841 -55.25 95.75 C-58.1726288 98.53149582 -60.17409258 99.18131601 -64.1875 99.1875 C-67.67482447 99.07450863 -69.13932218 98.81225628 -72.25 97.0625 C-76.41798257 92.24327015 -76.54762511 87.44727331 -76.54052734 81.29125977 C-76.54724457 80.45160675 -76.55396179 79.61195374 -76.56088257 78.74685669 C-76.57984076 75.97831261 -76.58378543 73.21001115 -76.5859375 70.44140625 C-76.59236613 68.5123637 -76.59909455 66.58332212 -76.60610962 64.65428162 C-76.61807635 60.61349222 -76.62179098 56.57278829 -76.62060547 52.53198242 C-76.62040213 47.35906269 -76.6477224 42.18669142 -76.68214989 37.01390171 C-76.70440533 33.03071076 -76.70844345 29.0476522 -76.70738602 25.06440544 C-76.70974332 23.15745081 -76.7185741 21.2504926 -76.73405075 19.34359932 C-76.75368659 16.67472177 -76.74788277 14.00703218 -76.73583984 11.33813477 C-76.74707886 10.55404739 -76.75831787 9.76996002 -76.76989746 8.96211243 C-76.71077331 3.7956692 -75.65465685 0.8553851 -72.25 -3.25 C-68.52533151 -5.11233425 -64.30504687 -4.82130829 -60.25 -4.25 C-57.12421857 -2.5779253 -54.85718825 -0.4643765 -53.25 2.75 C-53.18049459 4.29023996 -53.16547643 5.83334988 -53.1875 7.375 C-53.19652344 8.19226563 -53.20554687 9.00953125 -53.21484375 9.8515625 C-53.22644531 10.47804688 -53.23804687 11.10453125 -53.25 11.75 C-52.59 11.75 -51.93 11.75 -51.25 11.75 C-50.99863281 11.16347656 -50.74726562 10.57695313 -50.48828125 9.97265625 C-46.69117001 3.15702126 -38.85604981 -1.4644073 -31.6875 -3.9375 C-20.71180178 -7.01982833 -9.86493347 -5.6611266 0 0 Z " fill="#FCFDFC" transform="translate(157.25,78.25)"/>
</svg>
